<svg width="227" height="307" viewBox="0 0 227 307" fill="none" xmlns="http://www.w3.org/2000/svg">
<g clip-path="url(#clip0_63_79)">
<path d="M0 229.83V26.39C0 11.82 12.56 0 28.05 0H198.74C214.23 0 226.8 11.82 226.8 26.39V229.83H0Z" fill="black"/>
<path d="M226.8 229.83V280.49C226.8 295.07 214.24 306.88 198.74 306.88H28.05C12.56 306.88 0 293.08 0 278.5V229.83H226.8Z" fill="#F7941E"/>
<path d="M115.69 36.25C116.99 35.14 118.34 34.16 119.74 33.36L121.98 36.84C120.85 37.48 119.72 38.29 118.6 39.25L115.69 36.25Z" fill="white"/>
<path d="M134.32 36.55L136.45 33.01C137.85 33.76 139.23 34.69 140.6 35.83L137.73 38.88C136.56 37.91 135.42 37.14 134.32 36.56V36.55Z" fill="white"/>
<path d="M125.3 31.23C126.33 31.02 127.38 30.92 128.44 30.92C129.2 30.92 129.96 30.98 130.72 31.09L130.06 35.11C129.52 35.03 128.98 34.99 128.44 34.99C127.69 34.99 126.95 35.07 126.21 35.22L125.31 31.24L125.3 31.23Z" fill="white"/>
<path d="M97.67 98.01C98.19 96.49 98.79 95.07 99.45 93.72L103.02 95.27C102.43 96.48 101.89 97.77 101.41 99.16L97.67 98.01Z" fill="white"/>
<path d="M102.19 89.09C103.14 87.76 104.17 86.54 105.26 85.42L108.15 87.93C107.19 88.91 106.29 89.98 105.46 91.15L102.19 89.09Z" fill="white"/>
<path d="M109.49 81.84C110.82 80.9 112.22 80.07 113.68 79.34L115.53 82.6C114.24 83.25 113.01 83.98 111.84 84.8L109.49 81.84Z" fill="white"/>
<path d="M120.14 80.69L118.82 77.21C120.35 76.7 121.91 76.27 123.5 75.91L124.42 79.5C122.95 79.83 121.53 80.23 120.14 80.69Z" fill="white"/>
<path d="M169.09 79.6L169.27 75.91C170.64 75.97 171.94 76 173.18 76C173.4 76 173.62 76 173.83 76L173.87 79.7C173.64 79.7 173.41 79.7 173.18 79.7C171.86 79.7 170.5 79.66 169.09 79.6Z" fill="white"/>
<path d="M179.49 79.31L178.88 75.66C180.46 75.42 181.76 75.06 182.74 74.58L184.54 77.87C183.05 78.59 181.36 79.04 179.49 79.32V79.31Z" fill="white"/>
<path d="M159.03 78.93L159.36 75.24C160.95 75.36 162.5 75.48 164 75.59L163.7 79.28C162.18 79.17 160.62 79.05 159.03 78.93Z" fill="white"/>
<path d="M128.94 74.95C130.52 74.74 132.11 74.59 133.72 74.48L134 78.17C132.47 78.27 130.97 78.42 129.48 78.61L128.94 74.95Z" fill="white"/>
<path d="M149.09 78.23L149.32 74.54C150.9 74.63 152.47 74.73 154.02 74.84L153.72 78.53C152.19 78.42 150.65 78.32 149.09 78.23Z" fill="white"/>
<path d="M140.51 77.97C140.08 77.97 139.65 77.97 139.22 77.97L139.17 74.27C139.62 74.27 140.06 74.27 140.51 74.27C141.65 74.27 142.79 74.29 143.92 74.31L143.82 78.01C142.71 77.98 141.61 77.97 140.51 77.97Z" fill="white"/>
<path d="M185.23 71.98C185.43 71.41 185.56 70.72 185.56 69.87C185.56 69.44 185.53 68.96 185.46 68.45L189.36 67.99C189.45 68.64 189.49 69.27 189.49 69.87C189.49 71.05 189.32 72.15 188.96 73.15L185.24 71.97L185.23 71.98Z" fill="white"/>
<path d="M182.56 60.06L186.14 58.52C186.87 60.03 187.48 61.44 187.97 62.75L184.26 63.97C183.82 62.78 183.26 61.48 182.57 60.06H182.56Z" fill="white"/>
<path d="M189.11 51.64L175.66 44.06L175.41 58.81L189.11 51.64Z" fill="white"/>
<path d="M84.29 93.74L88.2 93.38C88.35 94.81 88.48 96.29 88.6 97.81L84.68 98.08C84.56 96.59 84.43 95.14 84.29 93.74Z" fill="white"/>
<path d="M82.95 84.56L86.82 83.88C87.1 85.3 87.35 86.77 87.57 88.31L83.67 88.81C83.45 87.33 83.21 85.9 82.94 84.55L82.95 84.56Z" fill="white"/>
<path d="M80.45 75.8L84.12 74.47C84.68 75.82 85.17 77.28 85.61 78.84L81.81 79.8C81.4 78.35 80.94 77.01 80.45 75.8Z" fill="white"/>
<path d="M47.85 72.13L49.47 68.76C50.6 69.24 51.71 69.44 52.87 69.44C52.96 69.44 53.06 69.44 53.15 69.44L53.27 73.14C53.14 73.14 53.01 73.14 52.88 73.14C51.23 73.14 49.52 72.84 47.86 72.13H47.85Z" fill="white"/>
<path d="M57.72 68.49C59.07 68.02 60.44 67.41 61.8 66.78L63.54 70.1C62.13 70.75 60.65 71.42 59.08 71.96L57.72 68.49Z" fill="white"/>
<path d="M75.61 68.83L78.06 65.94C79.39 66.94 80.55 68.19 81.55 69.65L78.26 71.67C77.44 70.48 76.56 69.54 75.61 68.84V68.83Z" fill="white"/>
<path d="M66.76 64.57C68.32 63.97 69.89 63.52 71.55 63.51C71.77 63.51 71.98 63.51 72.2 63.54L71.86 67.22C71.76 67.22 71.66 67.21 71.55 67.21C70.72 67.21 69.57 67.48 68.24 68L66.76 64.58V64.57Z" fill="white"/>
<path d="M52.18 64.29L37.04 60.47L41.09 74.72L52.18 64.29Z" fill="white"/>
<path d="M90.49 98.24C90.64 96.78 90.81 95.29 91.02 93.79L95.31 94.31C95.11 95.76 94.94 97.2 94.8 98.61L90.5 98.23L90.49 98.24Z" fill="white"/>
<path d="M91.82 88.74C92.08 87.28 92.37 85.82 92.67 84.35L96.91 85.14C96.61 86.57 96.33 87.99 96.08 89.41L91.82 88.74Z" fill="white"/>
<path d="M93.82 79.37C94.18 77.92 94.56 76.48 94.97 75.04L99.15 76.09C98.76 77.49 98.38 78.89 98.03 80.3L93.82 79.37Z" fill="white"/>
<path d="M96.45 70.12C96.91 68.69 97.4 67.27 97.9 65.87L101.99 67.17C101.5 68.53 101.03 69.91 100.58 71.3L96.44 70.12H96.45Z" fill="white"/>
<path d="M99.74 61.06C100.32 59.65 100.91 58.26 101.53 56.91L105.5 58.52C104.91 59.82 104.33 61.16 103.77 62.52L99.73 61.06H99.74Z" fill="white"/>
<path d="M103.81 52.24C104.53 50.86 105.28 49.53 106.04 48.25L109.81 50.24C109.08 51.45 108.38 52.72 107.69 54.03L103.81 52.23V52.24Z" fill="white"/>
<path d="M108.93 43.83C109.86 42.52 110.83 41.29 111.82 40.14L115.17 42.71C114.27 43.75 113.38 44.89 112.51 46.1L108.92 43.83H108.93Z" fill="white"/>
<path d="M141.18 42.28L144.52 39.69C145.49 40.8 146.46 42.03 147.43 43.36L143.86 45.64C142.96 44.4 142.07 43.27 141.19 42.27L141.18 42.28Z" fill="white"/>
<path d="M139.31 50.18L154.3 58.21L154.19 41.98L139.31 50.18Z" fill="white"/>
<path d="M37.7 106.95C39.44 106.71 41.01 106.53 42.42 106.41C43.83 106.29 45.08 106.23 46.18 106.23C47.34 106.23 48.64 106.29 50.08 106.41C51.52 106.53 53.08 106.71 54.75 106.95V157.73H77.01C77.33 159.24 77.54 160.56 77.64 161.68C77.74 162.8 77.78 163.81 77.78 164.72C77.78 165.75 77.73 166.82 77.64 167.94C77.54 169.06 77.33 170.4 77.01 171.97H37.69V106.96L37.7 106.95Z" fill="white"/>
<path d="M89.74 172.51C87.36 172.51 84.5 172.24 81.16 171.69V106.95C82.9 106.71 84.47 106.53 85.88 106.41C87.29 106.29 88.54 106.23 89.64 106.23C90.8 106.23 92.1 106.29 93.54 106.41C94.99 106.53 96.54 106.71 98.22 106.95V171.69C94.81 172.23 91.99 172.51 89.74 172.51Z" fill="white"/>
<path d="M102.08 106.77H142.75C143.01 108.1 143.2 109.34 143.33 110.49C143.46 111.64 143.52 112.73 143.52 113.75C143.52 115.75 143.26 118.13 142.75 120.91H119.14V131.97H137.74C138.32 134.69 138.61 137.05 138.61 139.04C138.61 141.03 138.32 143.48 137.74 146.2H119.14V171.68C115.73 172.22 112.91 172.5 110.66 172.5C108.28 172.5 105.42 172.23 102.08 171.68V106.76V106.77Z" fill="white"/>
<path d="M183.89 137.97C183.89 140.09 183.61 142.44 183.02 145.04H164.42V157.92H188.61C189.19 160.46 189.48 162.76 189.48 164.81C189.48 167.05 189.19 169.44 188.61 171.97H147.36V106.77H188.03C188.29 108.1 188.48 109.34 188.61 110.49C188.74 111.64 188.81 112.73 188.81 113.75C188.81 115.75 188.55 118.13 188.04 120.91H164.43V130.88H183.03C183.61 133.54 183.9 135.9 183.9 137.95L183.89 137.97Z" fill="white"/>
<path d="M48.18 184.63C49.18 185.01 50.08 185.4 50.89 185.79C51.69 186.18 52.38 186.66 52.95 187.21C53.52 187.76 53.97 188.42 54.28 189.2C54.59 189.98 54.75 190.91 54.75 192.02C54.75 193.21 54.53 194.28 54.09 195.24C53.65 196.2 53 197.02 52.14 197.7C51.28 198.39 50.22 198.91 48.97 199.28C47.72 199.65 46.28 199.84 44.65 199.84C43.17 199.84 41.86 199.73 40.73 199.5C39.59 199.28 38.37 198.93 37.06 198.45C37.16 197.67 37.32 196.83 37.56 195.94C37.8 195.05 38.08 194.15 38.42 193.23C40.62 194.13 42.53 194.58 44.15 194.58C45.37 194.58 46.32 194.41 47 194.06C47.68 193.71 48.02 193.11 48.02 192.26C48.02 191.9 47.95 191.59 47.81 191.33C47.67 191.07 47.48 190.85 47.24 190.68C47 190.5 46.73 190.35 46.43 190.22C46.13 190.1 45.83 189.98 45.52 189.87L43.51 189.16C42.65 188.87 41.87 188.52 41.16 188.11C40.45 187.71 39.85 187.23 39.35 186.68C38.85 186.13 38.46 185.49 38.19 184.77C37.91 184.05 37.78 183.21 37.78 182.24C37.78 181.05 38 179.99 38.43 179.07C38.86 178.15 39.46 177.37 40.24 176.73C41.02 176.09 41.95 175.61 43.05 175.28C44.15 174.95 45.38 174.79 46.74 174.79C47.96 174.79 49.13 174.9 50.27 175.13C51.4 175.35 52.62 175.68 53.91 176.11C53.81 176.83 53.64 177.62 53.39 178.49C53.14 179.36 52.82 180.17 52.44 180.93C51.82 180.68 51.09 180.42 50.26 180.15C49.42 179.88 48.38 179.74 47.14 179.74C46.76 179.74 46.39 179.78 46.05 179.84C45.7 179.91 45.39 180.01 45.12 180.16C44.85 180.31 44.62 180.51 44.46 180.77C44.29 181.03 44.21 181.35 44.21 181.73C44.21 182.38 44.44 182.87 44.89 183.18C45.34 183.49 45.88 183.76 46.5 183.99L48.22 184.63H48.18Z" fill="white"/>
<path d="M70.5 186.79C70.5 187.58 70.39 188.45 70.18 189.42H63.27V194.21H72.26C72.48 195.15 72.58 196.01 72.58 196.77C72.58 197.6 72.47 198.49 72.26 199.43H56.92V175.19H72.04C72.14 175.69 72.21 176.15 72.25 176.57C72.3 177 72.32 177.4 72.32 177.78C72.32 178.52 72.22 179.41 72.03 180.44H63.25V184.15H70.16C70.38 185.14 70.48 186.02 70.48 186.78L70.5 186.79Z" fill="white"/>
<path d="M74.37 175.26C75.02 175.17 75.6 175.1 76.13 175.06C76.66 175.02 77.12 174.99 77.53 174.99C77.96 174.99 78.44 175.01 78.98 175.06C79.52 175.11 80.1 175.17 80.72 175.26V194.14H89C89.12 194.7 89.2 195.19 89.23 195.61C89.27 196.03 89.28 196.4 89.28 196.74C89.28 197.12 89.26 197.52 89.23 197.94C89.19 198.36 89.12 198.86 89 199.44H74.38V175.27L74.37 175.26Z" fill="white"/>
<path d="M104.11 186.79C104.11 187.58 104 188.45 103.79 189.42H96.87V194.21H105.86C106.08 195.15 106.18 196.01 106.18 196.77C106.18 197.6 106.07 198.49 105.86 199.43H90.52V175.19H105.64C105.73 175.69 105.8 176.15 105.85 176.57C105.9 177 105.92 177.4 105.92 177.78C105.92 178.52 105.82 179.41 105.63 180.44H96.85V184.15H103.77C103.99 185.14 104.09 186.02 104.09 186.78L104.11 186.79Z" fill="white"/>
<path d="M113.1 187.36C113.1 192.13 115.23 194.51 119.48 194.51C120.24 194.51 120.97 194.44 121.65 194.31C122.33 194.18 123.16 193.95 124.14 193.63C124.93 195.25 125.45 196.91 125.72 198.62C125.03 198.87 124.39 199.07 123.79 199.23C123.19 199.38 122.62 199.5 122.07 199.58C121.52 199.66 120.98 199.71 120.44 199.75C119.9 199.78 119.35 199.8 118.77 199.8C116.74 199.8 114.95 199.49 113.42 198.87C111.88 198.25 110.59 197.39 109.55 196.29C108.51 195.19 107.73 193.87 107.2 192.35C106.67 190.82 106.41 189.16 106.41 187.36C106.41 185.56 106.68 183.89 107.23 182.35C107.78 180.81 108.58 179.48 109.61 178.35C110.65 177.23 111.93 176.35 113.46 175.72C114.99 175.09 116.72 174.77 118.66 174.77C119.8 174.77 120.89 174.85 121.92 175.01C122.95 175.17 124.1 175.48 125.36 175.95C125.31 176.87 125.14 177.76 124.83 178.63C124.52 179.5 124.2 180.25 123.86 180.91C123.38 180.75 122.95 180.62 122.55 180.5C122.15 180.39 121.78 180.3 121.42 180.23C121.06 180.16 120.7 180.11 120.34 180.08C119.98 180.05 119.6 180.03 119.19 180.03C117.25 180.03 115.76 180.64 114.69 181.87C113.63 183.09 113.1 184.92 113.1 187.35V187.36Z" fill="white"/>
<path d="M132.16 180.45H126.18C125.97 179.48 125.86 178.6 125.86 177.79C125.86 177.05 125.97 176.18 126.18 175.19H144.49C144.58 175.69 144.65 176.15 144.7 176.57C144.75 177 144.77 177.4 144.77 177.78C144.77 178.52 144.67 179.41 144.49 180.44H138.5V199.32C137.23 199.53 136.18 199.62 135.35 199.62C134.47 199.62 133.4 199.52 132.16 199.32V180.44V180.45Z" fill="white"/>
<path d="M166.15 182.39C165.71 180.85 165.02 179.52 164.11 178.39C163.19 177.27 162.02 176.38 160.62 175.74C159.21 175.1 157.52 174.78 155.57 174.78C153.62 174.78 151.92 175.1 150.5 175.74C149.08 176.38 147.91 177.26 146.99 178.39C146.07 179.51 145.39 180.85 144.95 182.39C144.51 183.93 144.29 185.6 144.29 187.4C144.29 189.2 144.51 190.86 144.95 192.37C145.39 193.88 146.07 195.2 146.99 196.31C147.9 197.42 149.08 198.29 150.5 198.91C151.92 199.53 153.61 199.84 155.57 199.84C157.53 199.84 159.21 199.53 160.62 198.91C162.03 198.29 163.19 197.43 164.11 196.31C165.03 195.2 165.71 193.88 166.15 192.37C166.59 190.85 166.81 189.19 166.81 187.4C166.81 185.61 166.59 183.93 166.15 182.39ZM155.56 194.68C153.99 194.68 152.82 194.08 152.07 192.88C151.32 191.68 150.94 189.85 150.94 187.4C150.94 182.5 152.49 180.05 155.6 180.05C158.71 180.05 160.15 182.5 160.15 187.4C160.15 192.3 158.62 194.68 155.56 194.68Z" fill="white"/>
<path d="M169 175.26C170.17 175.15 171.25 175.04 172.24 174.94C173.23 174.84 174.28 174.79 175.38 174.79C176.69 174.79 178.01 174.91 179.32 175.14C180.63 175.38 181.81 175.79 182.83 176.37C183.86 176.96 184.7 177.75 185.34 178.76C185.99 179.77 186.31 181.05 186.31 182.6C186.31 183.43 186.21 184.18 186.01 184.84C185.81 185.5 185.54 186.09 185.22 186.61C184.9 187.13 184.54 187.58 184.14 187.96C183.74 188.34 183.36 188.67 182.98 188.94L188.57 199.32C188 199.41 187.37 199.48 186.69 199.53C186.01 199.57 185.4 199.6 184.85 199.6C184.37 199.6 183.82 199.57 183.18 199.53C182.55 199.48 181.99 199.41 181.51 199.32L176.42 188.3L176.75 188.13C177.03 188 177.35 187.77 177.7 187.46C178.05 187.15 178.36 186.77 178.66 186.33C178.96 185.89 179.21 185.4 179.41 184.86C179.61 184.32 179.71 183.76 179.71 183.18C179.71 182.06 179.38 181.23 178.71 180.72C178.04 180.2 177.22 179.95 176.24 179.95C176.01 179.95 175.8 179.96 175.63 179.98C175.47 180 175.35 180.03 175.31 180.05V199.33C174.05 199.54 173 199.63 172.19 199.63C171.31 199.63 170.24 199.53 169 199.33V175.26Z" fill="white"/>
<path d="M13.45 265.25C14.37 265.39 15.29 265.46 16.21 265.46C17.08 265.46 17.99 265.39 18.93 265.25V240.01C17.98 239.87 17.07 239.8 16.17 239.8C15.27 239.8 14.37 239.87 13.45 240.01V265.25Z" fill="black"/>
<path d="M22.66 265.25C23.43 265.39 24.23 265.46 25.05 265.46C25.87 265.46 26.68 265.39 27.47 265.25V249.21L37.91 265.25C38.73 265.39 39.49 265.46 40.19 265.46C40.83 265.46 41.56 265.39 42.35 265.25V240.01C41.63 239.87 40.88 239.8 40.11 239.8C39.29 239.8 38.43 239.87 37.54 240.01V256.09L27.17 240.01C26.37 239.87 25.6 239.8 24.86 239.8C24.16 239.8 23.43 239.87 22.66 240.01V265.25Z" fill="black"/>
<path d="M51.32 265.25C51.82 265.32 52.31 265.37 52.79 265.39C53.27 265.41 53.73 265.43 54.15 265.43C54.57 265.43 55.01 265.41 55.45 265.38C55.9 265.34 56.35 265.3 56.79 265.26V244.38H63.47C63.62 243.68 63.69 242.94 63.69 242.17C63.69 241.44 63.62 240.73 63.47 240.03H44.63C44.48 240.73 44.41 241.44 44.41 242.17C44.41 242.94 44.48 243.68 44.63 244.38H51.31V265.26L51.32 265.25Z" fill="black"/>
<path d="M65.75 265.25H81.23C81.38 264.55 81.45 263.81 81.45 263.04C81.45 262.31 81.38 261.6 81.23 260.9H71.2V254.23H78.96C79.11 253.5 79.18 252.77 79.18 252.02C79.18 251.32 79.11 250.59 78.96 249.84H71.2V244.36H80.97C81.12 243.66 81.19 242.92 81.19 242.15C81.19 241.42 81.12 240.71 80.97 240.01H65.75V265.25Z" fill="black"/>
<path d="M84.33 265.25C84.83 265.32 85.31 265.37 85.78 265.39C86.25 265.41 86.7 265.43 87.12 265.43C87.54 265.43 87.98 265.41 88.43 265.38C88.88 265.34 89.32 265.3 89.77 265.26V243.95C90.22 243.88 90.72 243.85 91.26 243.85C92.68 243.85 93.83 244.2 94.73 244.89C95.62 245.58 96.07 246.66 96.07 248.13C96.07 248.88 95.91 249.53 95.58 250.08C95.26 250.63 94.87 251.1 94.41 251.49C93.95 251.87 93.47 252.2 92.97 252.46C92.47 252.72 92.05 252.93 91.7 253.09L90.8 253.51L97.81 265.23C98.73 265.37 99.66 265.44 100.61 265.44C101.18 265.44 101.74 265.41 102.29 265.37C102.84 265.32 103.36 265.28 103.86 265.23L97.33 254.56L97.96 254.17C98.36 253.94 98.78 253.63 99.23 253.24C99.68 252.85 100.09 252.39 100.48 251.86C100.87 251.32 101.18 250.7 101.43 249.98C101.68 249.26 101.8 248.44 101.8 247.5C101.8 245.93 101.47 244.64 100.81 243.62C100.15 242.6 99.29 241.79 98.22 241.2C97.15 240.6 95.95 240.19 94.62 239.96C93.29 239.72 91.94 239.61 90.57 239.61C89.4 239.61 88.34 239.65 87.38 239.73C86.42 239.81 85.4 239.91 84.3 240.03V265.27L84.33 265.25Z" fill="black"/>
<path d="M117.68 240.01C117.11 239.94 116.59 239.89 116.12 239.85C115.65 239.82 115.16 239.8 114.66 239.8C114.09 239.8 113.57 239.82 113.09 239.85C112.62 239.89 112.12 239.94 111.6 240.01L103.13 265.25C104.02 265.39 104.93 265.46 105.85 265.46C106.67 265.46 107.53 265.39 108.42 265.25L109.95 260.2H118.83L120.32 265.25C121.22 265.39 122.14 265.46 123.08 265.46C124.02 265.46 125.05 265.39 126.07 265.25L117.68 240.01ZM111.23 255.95L114.48 245.35L117.58 255.95H111.24H111.23Z" fill="black"/>
<path d="M142.04 261.07C141.35 261.19 140.53 261.24 139.61 261.24C134.47 261.24 131.89 258.38 131.89 252.68C131.89 249.8 132.53 247.63 133.81 246.17C135.09 244.71 136.93 243.98 139.31 243.98C140.23 243.98 141.03 244.04 141.7 244.16C142.37 244.28 143.14 244.48 144.01 244.76C144.31 244.08 144.58 243.41 144.83 242.74C145.08 242.07 145.23 241.38 145.28 240.69C144.11 240.24 143.03 239.95 142.02 239.81C141.01 239.67 139.91 239.6 138.72 239.6C136.7 239.6 134.9 239.93 133.33 240.58C131.75 241.23 130.43 242.15 129.34 243.32C128.26 244.49 127.43 245.88 126.86 247.48C126.29 249.09 126 250.82 126 252.69C126 254.56 126.27 256.29 126.82 257.88C127.36 259.47 128.18 260.84 129.26 262C130.34 263.16 131.68 264.06 133.27 264.7C134.86 265.34 136.72 265.67 138.83 265.67C140.02 265.67 141.14 265.6 142.17 265.46C143.2 265.32 144.36 265.03 145.65 264.58C145.55 263.88 145.4 263.19 145.19 262.49C144.98 261.8 144.71 261.13 144.39 260.47C143.52 260.75 142.73 260.95 142.04 261.07Z" fill="black"/>
<path d="M153.46 265.25C153.96 265.32 154.45 265.37 154.93 265.39C155.41 265.41 155.87 265.43 156.29 265.43C156.71 265.43 157.15 265.41 157.59 265.38C158.04 265.34 158.49 265.3 158.94 265.26V244.38H165.62C165.77 243.68 165.84 242.94 165.84 242.17C165.84 241.44 165.77 240.73 165.62 240.03H146.78C146.63 240.73 146.56 241.44 146.56 242.17C146.56 242.94 146.63 243.68 146.78 244.38H153.46V265.26V265.25Z" fill="black"/>
<path d="M167.89 265.25C168.81 265.39 169.73 265.46 170.65 265.46C171.52 265.46 172.43 265.39 173.37 265.25V240.01C172.42 239.87 171.5 239.8 170.61 239.8C169.72 239.8 168.8 239.87 167.89 240.01V265.25Z" fill="black"/>
<path d="M183.45 265.25C184.02 265.32 184.55 265.37 185.02 265.41C185.49 265.44 185.98 265.46 186.48 265.46C187.03 265.46 187.54 265.44 188.02 265.41C188.51 265.37 189.01 265.32 189.53 265.25L198.19 240.01C197.69 239.94 197.21 239.89 196.76 239.87C196.29 239.85 195.85 239.83 195.4 239.83C194.93 239.83 194.46 239.84 194 239.87C193.54 239.9 193.06 239.94 192.56 240.01L186.63 259.91L180.77 240.01C179.73 239.87 178.73 239.8 177.78 239.8C177.36 239.8 176.87 239.82 176.33 239.87C175.78 239.92 175.3 239.96 174.87 240.01L183.45 265.25Z" fill="black"/>
<path d="M199.67 265.25H215.15C215.3 264.55 215.37 263.81 215.37 263.04C215.37 262.31 215.3 261.6 215.15 260.9H205.11V254.23H212.87C213.02 253.5 213.09 252.77 213.09 252.02C213.09 251.32 213.02 250.59 212.87 249.84H205.11V244.36H214.88C215.03 243.66 215.1 242.92 215.1 242.15C215.1 241.42 215.03 240.71 214.88 240.01H199.66V265.25H199.67Z" fill="black"/>
<path d="M87.22 275.41C86.57 274.26 85.73 273.36 84.7 272.72C83.67 272.08 82.51 271.64 81.23 271.4C79.95 271.17 78.69 271.05 77.44 271.05C76.19 271.05 75.07 271.08 73.9 271.14C72.73 271.2 71.58 271.27 70.43 271.37V296.71C70.93 296.78 71.41 296.83 71.89 296.85C72.36 296.87 72.8 296.88 73.19 296.88C73.61 296.88 74.05 296.87 74.5 296.85C74.95 296.83 75.41 296.78 75.88 296.71V288.6C76.13 288.63 76.4 288.64 76.68 288.65C76.97 288.66 77.27 288.67 77.59 288.67C78.81 288.67 80.05 288.55 81.3 288.32C82.55 288.09 83.69 287.64 84.71 286.98C85.73 286.32 86.56 285.43 87.21 284.29C87.85 283.16 88.18 281.68 88.18 279.85C88.18 278.02 87.85 276.54 87.21 275.39L87.22 275.41ZM82.18 282.06C81.91 282.63 81.54 283.1 81.08 283.45C80.62 283.8 80.09 284.05 79.49 284.2C78.89 284.35 78.28 284.42 77.66 284.42H76.71C76.45 284.42 76.17 284.4 75.87 284.35V275.4C76.32 275.35 76.66 275.32 76.9 275.31C77.14 275.3 77.39 275.29 77.66 275.29C78.28 275.29 78.89 275.37 79.49 275.52C80.09 275.67 80.62 275.92 81.08 276.29C81.54 276.65 81.91 277.13 82.18 277.73C82.45 278.33 82.59 279.06 82.59 279.92C82.59 280.78 82.45 281.47 82.18 282.04V282.06Z" fill="black"/>
<path d="M112.57 278.94C112.11 277.34 111.41 275.95 110.46 274.78C109.51 273.61 108.31 272.7 106.84 272.04C105.37 271.39 103.63 271.06 101.62 271.06C99.61 271.06 97.86 271.39 96.4 272.04C94.93 272.7 93.73 273.61 92.78 274.78C91.83 275.95 91.13 277.33 90.67 278.94C90.21 280.54 89.98 282.28 89.98 284.15C89.98 286.02 90.21 287.75 90.67 289.33C91.13 290.91 91.83 292.28 92.78 293.44C93.73 294.6 94.93 295.51 96.4 296.16C97.87 296.82 99.61 297.14 101.62 297.14C103.63 297.14 105.38 296.81 106.84 296.16C108.31 295.51 109.51 294.6 110.46 293.44C111.4 292.28 112.11 290.91 112.57 289.33C113.03 287.75 113.26 286.03 113.26 284.15C113.26 282.27 113.03 280.54 112.57 278.94ZM101.62 292.86C97.74 292.86 95.8 289.96 95.8 284.16C95.8 278.36 97.75 275.45 101.66 275.45C103.62 275.45 105.07 276.18 106.01 277.63C106.94 279.08 107.41 281.26 107.41 284.16C107.41 289.96 105.48 292.86 101.63 292.86H101.62Z" fill="black"/>
<path d="M116.54 296.72C117.04 296.79 117.52 296.84 118 296.86C118.47 296.88 118.92 296.89 119.34 296.89C119.76 296.89 120.2 296.87 120.64 296.84C121.09 296.8 121.54 296.76 121.99 296.72V275.42C122.44 275.35 122.94 275.31 123.48 275.31C124.9 275.31 126.05 275.66 126.95 276.35C127.84 277.04 128.29 278.12 128.29 279.6C128.29 280.35 128.13 281 127.8 281.55C127.48 282.1 127.09 282.57 126.63 282.95C126.17 283.34 125.69 283.66 125.19 283.92C124.69 284.18 124.27 284.39 123.92 284.55L123.02 284.97L130.03 296.69C130.95 296.83 131.89 296.9 132.83 296.9C133.4 296.9 133.96 296.88 134.51 296.83C135.05 296.78 135.57 296.74 136.07 296.69L129.54 286.02L130.17 285.63C130.57 285.39 130.99 285.09 131.44 284.7C131.89 284.31 132.3 283.85 132.69 283.32C133.07 282.78 133.39 282.16 133.64 281.44C133.89 280.72 134.01 279.9 134.01 278.96C134.01 277.39 133.68 276.1 133.02 275.08C132.36 274.06 131.5 273.25 130.43 272.66C129.36 272.06 128.16 271.65 126.83 271.41C125.5 271.18 124.15 271.06 122.78 271.06C121.61 271.06 120.55 271.1 119.59 271.18C118.63 271.26 117.6 271.36 116.51 271.48V296.72H116.54Z" fill="black"/>
<path d="M137.58 296.72C138.35 296.86 139.15 296.93 139.97 296.93C140.79 296.93 141.6 296.86 142.39 296.72V280.68L152.83 296.72C153.65 296.86 154.41 296.93 155.11 296.93C155.76 296.93 156.48 296.86 157.27 296.72V271.48C156.55 271.34 155.8 271.27 155.03 271.27C154.21 271.27 153.35 271.34 152.46 271.48V287.56L142.09 271.48C141.29 271.34 140.52 271.27 139.78 271.27C139.08 271.27 138.35 271.34 137.57 271.48V296.72H137.58Z" fill="black"/>
</g>
<defs>
<clipPath id="clip0_63_79">
<rect width="226.8" height="306.89" fill="white"/>
</clipPath>
</defs>
</svg>
